<mxfile host="app.diagrams.net" modified="2021-08-13T12:46:43.921Z" agent="5.0 (Macintosh; Intel Mac OS X 10_15_1) AppleWebKit/537.36 (KHTML, like Gecko) Chrome/91.0.4472.114 Safari/537.36" etag="X86jOpqUkqDm2n7eFiVJ" version="14.8.6" type="github">
  <diagram id="C5RBs43oDa-KdzZeNtuy" name="Page-1">
    <mxGraphModel dx="1209" dy="737" grid="1" gridSize="10" guides="1" tooltips="1" connect="1" arrows="1" fold="1" page="1" pageScale="1" pageWidth="827" pageHeight="1169" math="0" shadow="0">
      <root>
        <mxCell id="WIyWlLk6GJQsqaUBKTNV-0" />
        <mxCell id="WIyWlLk6GJQsqaUBKTNV-1" parent="WIyWlLk6GJQsqaUBKTNV-0" />
        <mxCell id="WIyWlLk6GJQsqaUBKTNV-2" value="" style="rounded=0;html=1;jettySize=auto;orthogonalLoop=1;fontSize=11;endArrow=block;endFill=0;endSize=8;strokeWidth=1;shadow=0;labelBackgroundColor=none;edgeStyle=orthogonalEdgeStyle;" parent="WIyWlLk6GJQsqaUBKTNV-1" target="WIyWlLk6GJQsqaUBKTNV-6" edge="1">
          <mxGeometry relative="1" as="geometry">
            <mxPoint x="240" y="70" as="sourcePoint" />
          </mxGeometry>
        </mxCell>
        <mxCell id="7VLo5oWRt0F8jgSJgMmA-28" value="用户抢购" style="edgeLabel;html=1;align=center;verticalAlign=middle;resizable=0;points=[];" vertex="1" connectable="0" parent="WIyWlLk6GJQsqaUBKTNV-2">
          <mxGeometry x="0.02" y="4" relative="1" as="geometry">
            <mxPoint x="26" as="offset" />
          </mxGeometry>
        </mxCell>
        <mxCell id="WIyWlLk6GJQsqaUBKTNV-4" value="否" style="rounded=0;html=1;jettySize=auto;orthogonalLoop=1;fontSize=11;endArrow=block;endFill=0;endSize=8;strokeWidth=1;shadow=0;labelBackgroundColor=none;edgeStyle=orthogonalEdgeStyle;" parent="WIyWlLk6GJQsqaUBKTNV-1" source="WIyWlLk6GJQsqaUBKTNV-6" target="WIyWlLk6GJQsqaUBKTNV-10" edge="1">
          <mxGeometry y="20" relative="1" as="geometry">
            <mxPoint as="offset" />
          </mxGeometry>
        </mxCell>
        <mxCell id="WIyWlLk6GJQsqaUBKTNV-5" value="是" style="edgeStyle=orthogonalEdgeStyle;rounded=0;html=1;jettySize=auto;orthogonalLoop=1;fontSize=11;endArrow=block;endFill=0;endSize=8;strokeWidth=1;shadow=0;labelBackgroundColor=none;" parent="WIyWlLk6GJQsqaUBKTNV-1" source="WIyWlLk6GJQsqaUBKTNV-6" target="WIyWlLk6GJQsqaUBKTNV-7" edge="1">
          <mxGeometry y="10" relative="1" as="geometry">
            <mxPoint as="offset" />
          </mxGeometry>
        </mxCell>
        <mxCell id="WIyWlLk6GJQsqaUBKTNV-6" value="是否命中&lt;br&gt;风控措施&lt;br&gt;黑名单/限流等" style="rhombus;whiteSpace=wrap;html=1;shadow=0;fontFamily=Helvetica;fontSize=12;align=center;strokeWidth=1;spacing=6;spacingTop=-4;" parent="WIyWlLk6GJQsqaUBKTNV-1" vertex="1">
          <mxGeometry x="175" y="170" width="130" height="80" as="geometry" />
        </mxCell>
        <mxCell id="WIyWlLk6GJQsqaUBKTNV-7" value="抢购失败" style="rounded=1;whiteSpace=wrap;html=1;fontSize=12;glass=0;strokeWidth=1;shadow=0;" parent="WIyWlLk6GJQsqaUBKTNV-1" vertex="1">
          <mxGeometry x="360" y="190" width="120" height="40" as="geometry" />
        </mxCell>
        <mxCell id="WIyWlLk6GJQsqaUBKTNV-8" value="是" style="rounded=0;html=1;jettySize=auto;orthogonalLoop=1;fontSize=11;endArrow=block;endFill=0;endSize=8;strokeWidth=1;shadow=0;labelBackgroundColor=none;edgeStyle=orthogonalEdgeStyle;entryX=0.5;entryY=0;entryDx=0;entryDy=0;startArrow=none;" parent="WIyWlLk6GJQsqaUBKTNV-1" source="7VLo5oWRt0F8jgSJgMmA-35" target="7VLo5oWRt0F8jgSJgMmA-12" edge="1">
          <mxGeometry x="-0.2" y="20" relative="1" as="geometry">
            <mxPoint as="offset" />
            <mxPoint x="260" y="400" as="sourcePoint" />
            <mxPoint x="240" y="430" as="targetPoint" />
          </mxGeometry>
        </mxCell>
        <mxCell id="WIyWlLk6GJQsqaUBKTNV-9" value="不足" style="edgeStyle=orthogonalEdgeStyle;rounded=0;html=1;jettySize=auto;orthogonalLoop=1;fontSize=11;endArrow=block;endFill=0;endSize=8;strokeWidth=1;shadow=0;labelBackgroundColor=none;" parent="WIyWlLk6GJQsqaUBKTNV-1" source="WIyWlLk6GJQsqaUBKTNV-10" target="WIyWlLk6GJQsqaUBKTNV-12" edge="1">
          <mxGeometry y="10" relative="1" as="geometry">
            <mxPoint as="offset" />
          </mxGeometry>
        </mxCell>
        <mxCell id="7VLo5oWRt0F8jgSJgMmA-38" value="" style="edgeStyle=orthogonalEdgeStyle;rounded=0;orthogonalLoop=1;jettySize=auto;html=1;" edge="1" parent="WIyWlLk6GJQsqaUBKTNV-1" source="WIyWlLk6GJQsqaUBKTNV-10" target="7VLo5oWRt0F8jgSJgMmA-35">
          <mxGeometry relative="1" as="geometry" />
        </mxCell>
        <mxCell id="7VLo5oWRt0F8jgSJgMmA-42" value="足够" style="edgeLabel;html=1;align=center;verticalAlign=middle;resizable=0;points=[];" vertex="1" connectable="0" parent="7VLo5oWRt0F8jgSJgMmA-38">
          <mxGeometry x="-0.2786" relative="1" as="geometry">
            <mxPoint x="20" as="offset" />
          </mxGeometry>
        </mxCell>
        <mxCell id="WIyWlLk6GJQsqaUBKTNV-10" value="库存是否足够" style="rhombus;whiteSpace=wrap;html=1;shadow=0;fontFamily=Helvetica;fontSize=12;align=center;strokeWidth=1;spacing=6;spacingTop=-4;" parent="WIyWlLk6GJQsqaUBKTNV-1" vertex="1">
          <mxGeometry x="165" y="290" width="150" height="80" as="geometry" />
        </mxCell>
        <mxCell id="WIyWlLk6GJQsqaUBKTNV-12" value="抢购失败" style="rounded=1;whiteSpace=wrap;html=1;fontSize=12;glass=0;strokeWidth=1;shadow=0;" parent="WIyWlLk6GJQsqaUBKTNV-1" vertex="1">
          <mxGeometry x="410" y="310" width="120" height="40" as="geometry" />
        </mxCell>
        <mxCell id="7VLo5oWRt0F8jgSJgMmA-2" value="Actor" style="shape=umlActor;verticalLabelPosition=bottom;verticalAlign=top;html=1;outlineConnect=0;" vertex="1" parent="WIyWlLk6GJQsqaUBKTNV-1">
          <mxGeometry x="230" y="60" width="20" height="30" as="geometry" />
        </mxCell>
        <mxCell id="7VLo5oWRt0F8jgSJgMmA-10" value="&lt;span style=&quot;font-size: 12px&quot;&gt;等待支付超时 或 用户取消订单&lt;/span&gt;" style="edgeStyle=orthogonalEdgeStyle;rounded=0;html=1;jettySize=auto;orthogonalLoop=1;fontSize=11;endArrow=block;endFill=0;endSize=8;strokeWidth=1;shadow=0;labelBackgroundColor=none;exitX=1;exitY=0.5;exitDx=0;exitDy=0;" edge="1" parent="WIyWlLk6GJQsqaUBKTNV-1" target="7VLo5oWRt0F8jgSJgMmA-11" source="7VLo5oWRt0F8jgSJgMmA-12">
          <mxGeometry x="-0.1148" y="10" relative="1" as="geometry">
            <mxPoint as="offset" />
            <mxPoint x="509" y="580" as="sourcePoint" />
          </mxGeometry>
        </mxCell>
        <mxCell id="7VLo5oWRt0F8jgSJgMmA-11" value="库存回滚+1&lt;br&gt;订单状态修改" style="rounded=1;whiteSpace=wrap;html=1;fontSize=12;glass=0;strokeWidth=1;shadow=0;" vertex="1" parent="WIyWlLk6GJQsqaUBKTNV-1">
          <mxGeometry x="510" y="560" width="120" height="40" as="geometry" />
        </mxCell>
        <mxCell id="7VLo5oWRt0F8jgSJgMmA-17" value="" style="edgeStyle=orthogonalEdgeStyle;rounded=0;orthogonalLoop=1;jettySize=auto;html=1;" edge="1" parent="WIyWlLk6GJQsqaUBKTNV-1" source="7VLo5oWRt0F8jgSJgMmA-12" target="7VLo5oWRt0F8jgSJgMmA-19">
          <mxGeometry relative="1" as="geometry">
            <mxPoint x="240" y="685" as="targetPoint" />
          </mxGeometry>
        </mxCell>
        <mxCell id="7VLo5oWRt0F8jgSJgMmA-18" value="是，继续支付" style="edgeLabel;html=1;align=center;verticalAlign=middle;resizable=0;points=[];" vertex="1" connectable="0" parent="7VLo5oWRt0F8jgSJgMmA-17">
          <mxGeometry x="-0.1385" y="-2" relative="1" as="geometry">
            <mxPoint x="42" as="offset" />
          </mxGeometry>
        </mxCell>
        <mxCell id="7VLo5oWRt0F8jgSJgMmA-12" value="是否付款" style="rhombus;whiteSpace=wrap;html=1;shadow=0;fontFamily=Helvetica;fontSize=12;align=center;strokeWidth=1;spacing=6;spacingTop=-4;" vertex="1" parent="WIyWlLk6GJQsqaUBKTNV-1">
          <mxGeometry x="165" y="540" width="150" height="80" as="geometry" />
        </mxCell>
        <mxCell id="7VLo5oWRt0F8jgSJgMmA-21" value="" style="edgeStyle=orthogonalEdgeStyle;rounded=0;orthogonalLoop=1;jettySize=auto;html=1;" edge="1" parent="WIyWlLk6GJQsqaUBKTNV-1" source="7VLo5oWRt0F8jgSJgMmA-19" target="7VLo5oWRt0F8jgSJgMmA-20">
          <mxGeometry relative="1" as="geometry" />
        </mxCell>
        <mxCell id="7VLo5oWRt0F8jgSJgMmA-22" value="是" style="edgeLabel;html=1;align=center;verticalAlign=middle;resizable=0;points=[];" vertex="1" connectable="0" parent="7VLo5oWRt0F8jgSJgMmA-21">
          <mxGeometry x="-0.16" y="1" relative="1" as="geometry">
            <mxPoint x="19" as="offset" />
          </mxGeometry>
        </mxCell>
        <mxCell id="7VLo5oWRt0F8jgSJgMmA-24" value="" style="edgeStyle=orthogonalEdgeStyle;rounded=0;orthogonalLoop=1;jettySize=auto;html=1;entryX=0;entryY=0.5;entryDx=0;entryDy=0;" edge="1" parent="WIyWlLk6GJQsqaUBKTNV-1" source="7VLo5oWRt0F8jgSJgMmA-19" target="7VLo5oWRt0F8jgSJgMmA-12">
          <mxGeometry relative="1" as="geometry">
            <Array as="points">
              <mxPoint x="110" y="720" />
              <mxPoint x="110" y="580" />
            </Array>
          </mxGeometry>
        </mxCell>
        <mxCell id="7VLo5oWRt0F8jgSJgMmA-25" value="某些原因支付失败，&lt;br&gt;继续跳转询问是否继续支付" style="edgeLabel;html=1;align=center;verticalAlign=middle;resizable=0;points=[];" vertex="1" connectable="0" parent="7VLo5oWRt0F8jgSJgMmA-24">
          <mxGeometry x="-0.008" y="-1" relative="1" as="geometry">
            <mxPoint as="offset" />
          </mxGeometry>
        </mxCell>
        <mxCell id="7VLo5oWRt0F8jgSJgMmA-19" value="是否支付成功" style="rhombus;whiteSpace=wrap;html=1;shadow=0;fontFamily=Helvetica;fontSize=12;align=center;strokeWidth=1;spacing=6;spacingTop=-4;" vertex="1" parent="WIyWlLk6GJQsqaUBKTNV-1">
          <mxGeometry x="165" y="680" width="150" height="80" as="geometry" />
        </mxCell>
        <mxCell id="7VLo5oWRt0F8jgSJgMmA-20" value="抢购成功" style="rounded=1;whiteSpace=wrap;html=1;fontSize=12;glass=0;strokeWidth=1;shadow=0;" vertex="1" parent="WIyWlLk6GJQsqaUBKTNV-1">
          <mxGeometry x="180" y="810" width="120" height="40" as="geometry" />
        </mxCell>
        <mxCell id="7VLo5oWRt0F8jgSJgMmA-27" value="" style="line;strokeWidth=2;html=1;dashed=1;" vertex="1" parent="WIyWlLk6GJQsqaUBKTNV-1">
          <mxGeometry x="40" y="140" width="490" height="10" as="geometry" />
        </mxCell>
        <mxCell id="7VLo5oWRt0F8jgSJgMmA-29" value="商品详情模块" style="text;html=1;align=center;verticalAlign=middle;resizable=0;points=[];autosize=1;strokeColor=none;" vertex="1" parent="WIyWlLk6GJQsqaUBKTNV-1">
          <mxGeometry x="40" y="90" width="90" height="20" as="geometry" />
        </mxCell>
        <mxCell id="7VLo5oWRt0F8jgSJgMmA-30" value="" style="line;strokeWidth=2;html=1;dashed=1;" vertex="1" parent="WIyWlLk6GJQsqaUBKTNV-1">
          <mxGeometry x="40" y="260" width="490" height="10" as="geometry" />
        </mxCell>
        <mxCell id="7VLo5oWRt0F8jgSJgMmA-31" value="风控模块" style="text;html=1;align=center;verticalAlign=middle;resizable=0;points=[];autosize=1;strokeColor=none;" vertex="1" parent="WIyWlLk6GJQsqaUBKTNV-1">
          <mxGeometry x="40" y="200" width="60" height="20" as="geometry" />
        </mxCell>
        <mxCell id="7VLo5oWRt0F8jgSJgMmA-32" value="" style="line;strokeWidth=2;html=1;dashed=1;" vertex="1" parent="WIyWlLk6GJQsqaUBKTNV-1">
          <mxGeometry x="40" y="510" width="490" height="10" as="geometry" />
        </mxCell>
        <mxCell id="7VLo5oWRt0F8jgSJgMmA-33" value="&lt;br&gt;秒杀核心模块：&lt;br&gt;1、订单模块&lt;br&gt;2、库存系统" style="text;html=1;align=center;verticalAlign=middle;resizable=0;points=[];autosize=1;strokeColor=none;" vertex="1" parent="WIyWlLk6GJQsqaUBKTNV-1">
          <mxGeometry x="20" y="290" width="100" height="60" as="geometry" />
        </mxCell>
        <mxCell id="7VLo5oWRt0F8jgSJgMmA-34" value="支付模块" style="text;html=1;align=center;verticalAlign=middle;resizable=0;points=[];autosize=1;strokeColor=none;" vertex="1" parent="WIyWlLk6GJQsqaUBKTNV-1">
          <mxGeometry x="30" y="570" width="60" height="20" as="geometry" />
        </mxCell>
        <mxCell id="7VLo5oWRt0F8jgSJgMmA-40" value="" style="edgeStyle=orthogonalEdgeStyle;rounded=0;orthogonalLoop=1;jettySize=auto;html=1;" edge="1" parent="WIyWlLk6GJQsqaUBKTNV-1" source="7VLo5oWRt0F8jgSJgMmA-35" target="7VLo5oWRt0F8jgSJgMmA-39">
          <mxGeometry relative="1" as="geometry" />
        </mxCell>
        <mxCell id="7VLo5oWRt0F8jgSJgMmA-35" value="订单生成&lt;br&gt;减库存" style="rhombus;whiteSpace=wrap;html=1;shadow=0;fontFamily=Helvetica;fontSize=12;align=center;strokeWidth=1;spacing=6;spacingTop=-4;" vertex="1" parent="WIyWlLk6GJQsqaUBKTNV-1">
          <mxGeometry x="165" y="410" width="150" height="80" as="geometry" />
        </mxCell>
        <mxCell id="7VLo5oWRt0F8jgSJgMmA-39" value="抢购失败" style="rounded=1;whiteSpace=wrap;html=1;fontSize=12;glass=0;strokeWidth=1;shadow=0;" vertex="1" parent="WIyWlLk6GJQsqaUBKTNV-1">
          <mxGeometry x="414" y="430" width="120" height="40" as="geometry" />
        </mxCell>
        <mxCell id="7VLo5oWRt0F8jgSJgMmA-41" value="减库存失败" style="text;html=1;align=center;verticalAlign=middle;resizable=0;points=[];autosize=1;strokeColor=none;" vertex="1" parent="WIyWlLk6GJQsqaUBKTNV-1">
          <mxGeometry x="320" y="430" width="80" height="20" as="geometry" />
        </mxCell>
      </root>
    </mxGraphModel>
  </diagram>
</mxfile>
